<svg xmlns="http://www.w3.org/2000/svg" xmlns:se="http://svg-edit.googlecode.com" xmlns:xlink="http://www.w3.org/1999/xlink" xmlns:dc="http://purl.org/dc/elements/1.1/" xmlns:cc="http://creativecommons.org/ns#" xmlns:rdf="http://www.w3.org/1999/02/22-rdf-syntax-ns#" xmlns:inkscape="http://www.inkscape.org/namespaces/inkscape" width="50" height="40.36842346191406">

                                    <title>my vector image</title>
                                    <!-- Created with Vector Paint - http://www.vectorpaint.yaks.com/ https://chrome.google.com/webstore/detail/hnbpdiengicdefcjecjbnjnoifekhgdo -->

                                <g class="currentLayer">
                                	<title>Layer 1</title>
                                	<g class="selected" id="svg_2">
                                		<path fill="" fill-opacity="1" stroke="white" stroke-opacity="1" stroke-width="1" stroke-dasharray="none" stroke-linejoin="miter" stroke-linecap="butt" stroke-dashoffset="" fill-rule="nonzero" opacity="1" marker-start="" marker-mid="" marker-end="" d="M2.105263601710078,2.921046741781879 L2.6315793647661962,38.71051862959766 " id="svg_1" class=""/>
                                		<path fill="" fill-opacity="1" stroke="white" stroke-opacity="1" stroke-width="1" stroke-dasharray="none" stroke-linejoin="miter" stroke-linecap="butt" stroke-dashoffset="" fill-rule="nonzero" opacity="1" marker-start="" marker-mid="" marker-end="" d="M2.6315793647661962,38.71051862959766 L48.94736651370425,38.71051862959766 " id="svg_3" class=""/>
                                		<path fill="" fill-opacity="1" stroke="white" stroke-opacity="1" stroke-width="1" stroke-dasharray="none" stroke-linejoin="miter" stroke-linecap="butt" stroke-dashoffset="" fill-rule="nonzero" opacity="1" marker-start="" marker-mid="" marker-end="" d="M48.94736651370425,38.71051862959766 L47.3684192245359,3.447362504837997 " id="svg_5" class=""/>
                                		<path fill="" fill-opacity="1" stroke="white" stroke-opacity="1" stroke-width="1" stroke-dasharray="none" stroke-linejoin="miter" stroke-linecap="butt" stroke-dashoffset="" fill-rule="nonzero" opacity="1" marker-start="" marker-mid="" marker-end="" d="M47.3684192245359,3.447362504837997 L2.6315793647661962,3.447362504837997 " id="svg_7" class=""/>
                                	</g>
                                	<polyline fill="none" stroke="white" stroke-dashoffset="" fill-rule="nonzero" marker-start="" marker-mid="" marker-end="" id="svg_4" points="18.94736747002014,8.86842381987202 18.94736747002014,9.394739582928139 18.94736747002014,9.921055345984257 18.94736747002014,10.447371109040375 18.94736747002014,10.973686872096494 18.94736747002014,11.500002635152612 18.94736747002014,11.500002635152612 18.94736747002014,12.02631839820873 18.94736747002014,12.552634161264848 18.94736747002014,13.078949924320966 18.94736747002014,13.605265687377084 18.94736747002014,14.131581450433202 18.94736747002014,14.65789721348932 18.421051706964022,14.65789721348932 18.421051706964022,14.65789721348932 17.368420180851842,14.65789721348932 16.842104417795724,14.65789721348932 16.315788654739606,14.65789721348932 15.789472891683488,14.65789721348932 15.26315712862737,14.65789721348932 15.26315712862737,15.184212976545439 14.736841365571252,15.184212976545439 14.736841365571252,15.184212976545439 14.736841365571252,15.7105287396015 13.684209839459015,15.7105287396015 13.157894076402897,15.7105287396015 13.157894076402897,16.23684450265762 12.631578313346777,16.23684450265762 12.10526255029066,16.23684450265762 12.10526255029066,16.763160265713736 12.10526255029066,17.289476028769855 11.052631024178424,17.289476028769855 11.052631024178424,17.815791791825973 11.052631024178424,18.34210755488209 10.526315261122306,18.34210755488209 10.526315261122306,18.86842331793821 10.526315261122306,19.394739080994327 10.526315261122306,19.921054844050445 10.526315261122306,19.921054844050445 9.999999498066188,20.447370607106564 9.999999498066188,20.97368637016268 9.999999498066188,21.5000021332188 9.999999498066188,22.026317896274918 9.999999498066188,22.552633659331036 9.999999498066188,23.605265185443276 9.999999498066188,24.131580948499334 9.999999498066188,24.657896711555452 9.999999498066188,25.184212474611567 9.999999498066188,25.71052823766769 9.999999498066188,26.236844000723806 9.999999498066188,26.763159763779925 10.526315261122306,26.763159763779925 10.526315261122306,26.763159763779925 11.052631024178424,26.763159763779925 11.578946787234543,26.763159763779925 11.578946787234543,27.289475526836043 12.631578313346777,27.289475526836043 13.157894076402897,27.289475526836043 13.684209839459015,27.289475526836043 14.210525602515133,27.289475526836043 14.736841365571252,27.289475526836043 15.26315712862737,28.34210705294828 16.315788654739606,28.34210705294828 17.368420180851842,28.34210705294828 18.94736747002014,28.868422816004397 19.473683233076258,28.868422816004397 19.473683233076258,29.394738579060515 19.473683233076258,29.921054342116634 18.94736747002014,30.44737010517275 18.94736747002014,30.97368586822887 18.94736747002014,32.02631739434105 18.421051706964022,32.55263315739717 18.421051706964022,33.605264683509404 18.421051706964022,33.605264683509404 17.894735943907904,33.605264683509404 17.368420180851842,33.605264683509404 17.368420180851842,33.605264683509404 16.842104417795724,33.605264683509404 16.315788654739606,33.605264683509404 15.789472891683488,33.605264683509404 14.736841365571252,33.605264683509404 14.736841365571252,33.605264683509404 14.210525602515133,33.605264683509404 13.684209839459015,33.605264683509404 13.157894076402897,33.605264683509404 12.631578313346777,33.605264683509404 12.10526255029066,33.605264683509404 11.578946787234543,33.605264683509404 11.052631024178424,33.605264683509404 11.052631024178424,33.078948920453286 10.526315261122306,33.078948920453286 9.999999498066188,32.55263315739717 9.473683735010127,32.55263315739717 9.473683735010127,32.55263315739717 8.947367971954009,32.55263315739717 8.42105220889789,32.02631739434105 8.42105220889789,31.500001631284988 7.894736445841772,31.500001631284988 7.894736445841772,30.97368586822887 7.894736445841772,30.44737010517275 7.894736445841772,29.921054342116634 6.842104919729536,29.921054342116634 6.842104919729536,29.394738579060515 6.842104919729536,28.868422816004397 6.842104919729536,28.34210705294828 6.842104919729536,27.81579128989216 6.842104919729536,27.289475526836043 6.842104919729536,26.763159763779925 6.842104919729536,26.236844000723806 6.842104919729536,25.71052823766769 6.842104919729536,25.184212474611567 6.842104919729536,24.657896711555452 6.842104919729536,24.131580948499334 6.315789156673418,24.131580948499334 6.315789156673418,23.605265185443276 6.315789156673418,22.552633659331036 6.315789156673418,22.026317896274918 6.315789156673418,21.5000021332188 5.7894733936173,21.5000021332188 5.7894733936173,20.447370607106564 5.7894733936173,19.921054844050445 5.7894733936173,19.394739080994327 5.7894733936173,18.86842331793821 5.7894733936173,18.34210755488209 5.7894733936173,17.815791791825973 5.7894733936173,17.289476028769855 5.7894733936173,16.763160265713736 5.7894733936173,16.23684450265762 5.7894733936173,15.7105287396015 5.7894733936173,15.184212976545439 5.7894733936173,14.65789721348932 6.315789156673418,14.65789721348932 6.315789156673418,14.131581450433202 6.315789156673418,13.605265687377084 6.842104919729536,13.605265687377084 6.842104919729536,13.078949924320966 7.368420682785654,13.078949924320966 7.368420682785654,12.552634161264848 7.894736445841772,12.552634161264848 7.894736445841772,12.02631839820873 8.42105220889789,12.02631839820873 8.947367971954009,12.02631839820873 8.947367971954009,11.500002635152612 9.473683735010127,11.500002635152612 9.999999498066188,11.500002635152612 10.526315261122306,11.500002635152612 10.526315261122306,10.973686872096494 11.052631024178424,10.973686872096494 11.578946787234543,10.973686872096494 12.10526255029066,10.973686872096494 12.631578313346777,10.973686872096494 13.157894076402897,10.973686872096494 13.684209839459015,10.973686872096494 14.210525602515133,10.973686872096494 14.736841365571252,10.973686872096494 15.26315712862737,10.973686872096494 15.789472891683488,10.973686872096494 16.315788654739606,10.973686872096494 16.842104417795724,10.973686872096494 17.368420180851842,10.973686872096494 17.368420180851842,10.447371109040375 17.894735943907904,10.447371109040375 18.421051706964022,10.447371109040375 " style="color: rgb(0, 0, 0);"/>
                                	<polyline fill="none" stroke="white" stroke-dashoffset="" fill-rule="nonzero" marker-start="" marker-mid="" marker-end="" id="svg_6" points="23.684209337525203,11.500002635152612 24.21052510058132,11.500002635152612 25.263156626693554,11.500002635152612 25.263156626693554,11.500002635152612 26.315788152805737,11.500002635152612 26.842103915861856,11.500002635152612 27.368419678917974,11.500002635152612 27.894735441974092,11.500002635152612 28.42105120503021,11.500002635152612 29.473682731142446,11.500002635152612 29.473682731142446,11.500002635152612 29.999998494198564,11.500002635152612 29.999998494198564,12.02631839820873 29.999998494198564,13.078949924320966 29.999998494198564,13.605265687377084 29.999998494198564,14.131581450433202 30.526314257254683,14.65789721348932 30.526314257254683,14.65789721348932 30.526314257254683,15.184212976545439 30.526314257254683,15.7105287396015 30.526314257254683,16.763160265713736 31.0526300203108,16.763160265713736 31.0526300203108,17.815791791825973 31.0526300203108,18.34210755488209 31.0526300203108,18.86842331793821 31.0526300203108,19.394739080994327 31.0526300203108,19.921054844050445 31.57894578336692,20.97368637016268 31.57894578336692,21.5000021332188 31.57894578336692,22.552633659331036 31.57894578336692,23.078949422387154 32.631577309479155,23.605265185443276 32.631577309479155,24.657896711555452 32.631577309479155,26.236844000723806 32.631577309479155,26.236844000723806 33.15789307253527,26.236844000723806 33.15789307253527,25.71052823766769 33.68420883559139,24.657896711555452 34.73684036170357,24.657896711555452 34.73684036170357,24.131580948499334 34.73684036170357,23.605265185443276 34.73684036170357,23.078949422387154 34.73684036170357,23.078949422387154 34.73684036170357,22.026317896274918 34.73684036170357,21.5000021332188 34.73684036170357,20.97368637016268 34.73684036170357,20.97368637016268 35.78947188781581,20.97368637016268 35.78947188781581,20.447370607106564 35.78947188781581,19.921054844050445 35.78947188781581,19.394739080994327 35.78947188781581,18.86842331793821 35.78947188781581,18.86842331793821 35.78947188781581,18.34210755488209 35.78947188781581,17.815791791825973 35.78947188781581,17.289476028769855 36.315787650871926,16.763160265713736 36.315787650871926,16.23684450265762 36.315787650871926,16.23684450265762 36.842103413928044,15.7105287396015 36.842103413928044,15.184212976545439 36.842103413928044,14.65789721348932 36.842103413928044,14.131581450433202 36.842103413928044,13.078949924320966 37.36841917698416,12.552634161264848 37.36841917698416,12.02631839820873 37.36841917698416,12.02631839820873 37.36841917698416,11.500002635152612 37.89473494004028,10.973686872096494 37.89473494004028,9.921055345984257 37.89473494004028,9.394739582928139 38.4210507030964,9.394739582928139 38.947366466152516,9.394739582928139 39.473682229208634,9.394739582928139 39.99999799226475,9.394739582928139 40.52631375532087,9.394739582928139 41.05262951837699,9.394739582928139 42.105261044489225,9.394739582928139 42.105261044489225,9.394739582928139 42.63157680754529,9.394739582928139 43.157892570601405,9.394739582928139 43.157892570601405,9.921055345984257 43.157892570601405,10.447371109040375 43.157892570601405,10.973686872096494 43.157892570601405,11.500002635152612 43.157892570601405,12.02631839820873 43.157892570601405,12.552634161264848 43.157892570601405,13.605265687377084 43.157892570601405,13.605265687377084 43.157892570601405,13.605265687377084 43.157892570601405,14.131581450433202 43.157892570601405,14.65789721348932 42.63157680754529,14.65789721348932 42.63157680754529,15.7105287396015 42.63157680754529,16.23684450265762 42.63157680754529,16.763160265713736 42.105261044489225,16.763160265713736 42.105261044489225,17.289476028769855 42.105261044489225,17.815791791825973 41.05262951837699,17.815791791825973 41.05262951837699,18.34210755488209 41.05262951837699,18.34210755488209 41.05262951837699,18.86842331793821 40.52631375532087,19.394739080994327 40.52631375532087,19.921054844050445 39.473682229208634,19.921054844050445 39.473682229208634,20.447370607106564 38.947366466152516,20.447370607106564 38.947366466152516,20.447370607106564 38.947366466152516,20.97368637016268 37.89473494004028,20.97368637016268 37.89473494004028,21.5000021332188 37.89473494004028,22.026317896274918 37.89473494004028,22.552633659331036 37.89473494004028,22.552633659331036 37.89473494004028,23.605265185443276 37.89473494004028,24.131580948499334 37.89473494004028,24.131580948499334 37.89473494004028,24.657896711555452 37.89473494004028,25.184212474611567 37.89473494004028,25.71052823766769 37.89473494004028,26.236844000723806 37.89473494004028,26.763159763779925 37.36841917698416,26.763159763779925 37.36841917698416,27.289475526836043 37.36841917698416,27.81579128989216 37.36841917698416,28.34210705294828 37.36841917698416,28.868422816004397 36.842103413928044,28.868422816004397 36.842103413928044,29.394738579060515 36.315787650871926,29.921054342116634 36.315787650871926,30.44737010517275 35.78947188781581,30.44737010517275 35.26315612475969,30.97368586822887 35.26315612475969,30.97368586822887 35.26315612475969,30.97368586822887 34.21052459864751,30.97368586822887 33.68420883559139,30.97368586822887 33.15789307253527,30.97368586822887 32.631577309479155,30.97368586822887 32.10526154642304,30.44737010517275 32.10526154642304,30.44737010517275 32.10526154642304,29.921054342116634 32.10526154642304,29.394738579060515 31.57894578336692,29.394738579060515 31.57894578336692,28.868422816004397 31.57894578336692,28.34210705294828 31.0526300203108,27.81579128989216 31.0526300203108,27.289475526836043 30.526314257254683,26.236844000723806 30.526314257254683,25.71052823766769 29.999998494198564,24.657896711555452 29.473682731142446,24.131580948499334 29.473682731142446,23.605265185443276 29.473682731142446,23.078949422387154 28.947366968086328,22.552633659331036 28.947366968086328,22.026317896274918 28.947366968086328,20.97368637016268 28.947366968086328,20.447370607106564 28.947366968086328,19.921054844050445 28.947366968086328,19.394739080994327 27.894735441974092,19.394739080994327 27.894735441974092,18.86842331793821 27.894735441974092,18.86842331793821 27.894735441974092,18.34210755488209 27.894735441974092,17.815791791825973 27.368419678917974,17.815791791825973 27.368419678917974,16.763160265713736 27.368419678917974,16.23684450265762 27.368419678917974,16.23684450265762 27.368419678917974,15.7105287396015 26.842103915861856,15.184212976545439 26.842103915861856,14.65789721348932 26.842103915861856,14.131581450433202 26.842103915861856,13.605265687377084 26.842103915861856,13.078949924320966 26.842103915861856,12.552634161264848 26.315788152805737,12.552634161264848 26.315788152805737,12.02631839820873 25.789472389749676,12.02631839820873 25.789472389749676,11.500002635152612 " style="color: rgb(0, 0, 0);"/>
                                </g>
                            </svg>
