<svg xmlns="http://www.w3.org/2000/svg" xmlns:se="http://svg-edit.googlecode.com" xmlns:xlink="http://www.w3.org/1999/xlink" xmlns:dc="http://purl.org/dc/elements/1.1/" xmlns:cc="http://creativecommons.org/ns#" xmlns:rdf="http://www.w3.org/1999/02/22-rdf-syntax-ns#" xmlns:inkscape="http://www.inkscape.org/namespaces/inkscape" width="50.210527108316455" height="40.52631626498999">
                                    <title>my vector image</title>
                                    <!-- Created with Vector Paint - http://www.vectorpaint.yaks.com/ https://chrome.google.com/webstore/detail/hnbpdiengicdefcjecjbnjnoifekhgdo -->        
                                <g class="currentLayer">

                                	<title>Layer 1</title>
                                	<g class="">
                                		<path fill="" fill-opacity="1" stroke="white" stroke-opacity="1" stroke-width="1" stroke-dasharray="none" stroke-linejoin="miter" stroke-linecap="butt" stroke-dashoffset="" fill-rule="nonzero" opacity="1" marker-start="" marker-mid="" marker-end="" d="M1.4055209153363997,37.65190560625291 L49.02456889480514,37.65190560625291 " id="svg_1" class=""/>
                                		<path fill="" fill-opacity="1" stroke="white" stroke-opacity="1" stroke-width="1" stroke-dasharray="none" stroke-linejoin="miter" stroke-linecap="butt" stroke-dashoffset="" fill-rule="nonzero" opacity="1" marker-start="" marker-mid="" marker-end="" d="M49.02456889480514,37.65190560625291 L49.02456889480514,1.143968821993539 " id="svg_3" class=""/>
                                		<path fill="" fill-opacity="1" stroke="white" stroke-opacity="1" stroke-width="1" stroke-dasharray="none" stroke-linejoin="miter" stroke-linecap="butt" stroke-dashoffset="" fill-rule="nonzero" opacity="1" marker-start="" marker-mid="" marker-end="" d="M49.02456889480514,1.143968821993539 L1.4055209153363997,1.6730693550987468 " id="svg_5" class=""/>
                                		<path fill="" fill-opacity="1" stroke="white" stroke-opacity="1" stroke-width="1" stroke-dasharray="none" stroke-linejoin="miter" stroke-linecap="butt" stroke-dashoffset="" fill-rule="nonzero" opacity="1" marker-start="" marker-mid="" marker-end="" d="M1.8700832672162733,38.423618366291336 L1.3822783778209669,1.8382516616443922 " id="svg_2" class=""/>
                                		<polyline fill="none" stroke="white" stroke-dashoffset="" fill-rule="nonzero" marker-start="" marker-mid="" marker-end="" id="svg_4" points="31.30525302886963,5.8947434425354 31.30525302886963,6.4210591316223145 31.30525302886963,6.9473748207092285 31.30525302886963,7.473690509796143 31.83156681060791,7.473690509796143 31.83156681060791,8.000006198883057 31.83156681060791,8.52632188796997 31.83156681060791,9.052637577056885 31.83156681060791,9.052637577056885 31.83156681060791,9.578953266143799 31.83156681060791,10.105268955230713 31.83156681060791,10.631584644317627 31.83156681060791,11.157900333404541 31.83156681060791,11.157900333404541 31.83156681060791,11.684216976165771 31.83156681060791,12.210532665252686 31.83156681060791,12.7368483543396 31.83156681060791,13.263164043426514 31.83156681060791,13.789479732513428 31.83156681060791,13.263164043426514 31.30525302886963,13.263164043426514 31.30525302886963,12.7368483543396 30.778935432434082,12.7368483543396 30.2526216506958,12.7368483543396 29.726304054260254,12.7368483543396 29.199986457824707,12.7368483543396 28.673672676086426,12.7368483543396 28.14735507965088,12.7368483543396 27.621041297912598,12.7368483543396 27.09472370147705,12.7368483543396 27.09472370147705,12.7368483543396 26.56840991973877,12.7368483543396 26.56840991973877,13.263164043426514 25.51577854156494,13.263164043426514 25.51577854156494,13.789479732513428 25.51577854156494,14.315795421600342 25.51577854156494,14.315795421600342 25.51577854156494,14.842111110687256 25.51577854156494,15.36842679977417 25.51577854156494,15.894742488861084 24.989462852478027,16.421058177947998 24.989462852478027,16.947373867034912 24.989462852478027,17.473689556121826 24.989462852478027,18.00000524520874 24.989462852478027,18.00000524520874 24.989462852478027,18.526320934295654 25.51577854156494,18.526320934295654 26.042092323303223,18.526320934295654 26.56840991973877,18.526320934295654 27.09472370147705,18.526320934295654 27.621041297912598,18.526320934295654 28.14735507965088,18.526320934295654 28.673672676086426,18.526320934295654 28.673672676086426,18.526320934295654 29.199986457824707,19.05263662338257 29.726304054260254,19.05263662338257 30.2526216506958,19.05263662338257 30.2526216506958,19.578952312469482 30.778935432434082,19.578952312469482 30.778935432434082,20.105268001556396 30.778935432434082,20.63158369064331 30.778935432434082,21.157899379730225 30.778935432434082,21.157899379730225 30.778935432434082,21.68421506881714 30.778935432434082,22.210532665252686 30.778935432434082,22.7368483543396 30.778935432434082,23.263164043426514 30.778935432434082,23.789479732513428 30.778935432434082,24.315795421600342 30.778935432434082,24.315795421600342 30.778935432434082,24.842111110687256 30.778935432434082,25.36842679977417 30.2526216506958,25.36842679977417 29.726304054260254,25.36842679977417 29.199986457824707,25.36842679977417 28.673672676086426,25.36842679977417 28.673672676086426,25.36842679977417 28.14735507965088,25.36842679977417 27.09472370147705,25.36842679977417 26.56840991973877,25.36842679977417 26.042092323303223,25.36842679977417 26.042092323303223,25.36842679977417 25.51577854156494,25.36842679977417 24.989462852478027,25.36842679977417 24.463147163391113,25.36842679977417 24.463147163391113,25.894742488861084 24.463147163391113,26.421058177947998 24.989462852478027,26.421058177947998 24.989462852478027,26.947373867034912 24.989462852478027,27.473689556121826 24.989462852478027,28.000003337860107 24.989462852478027,28.526320934295654 24.989462852478027,29.052634716033936 24.989462852478027,29.052634716033936 24.989462852478027,29.578952312469482 24.989462852478027,30.10526990890503 24.989462852478027,30.63158369064331 24.989462852478027,31.157901287078857 24.989462852478027,31.157901287078857 24.989462852478027,31.68421506881714 24.463147163391113,31.68421506881714 23.9368314743042,31.68421506881714 23.410515785217285,31.68421506881714 23.410515785217285,31.68421506881714 22.88419818878174,31.68421506881714 22.357882499694824,31.68421506881714 21.83156681060791,31.68421506881714 21.83156681060791,31.68421506881714 20.778935432434082,31.68421506881714 20.778935432434082,31.68421506881714 20.252619743347168,31.68421506881714 19.726304054260254,31.68421506881714 19.19998836517334,31.68421506881714 18.673672676086426,31.68421506881714 18.673672676086426,31.157901287078857 18.673672676086426,31.157901287078857 18.673672676086426,30.63158369064331 18.673672676086426,30.10526990890503 18.673672676086426,29.578952312469482 18.673672676086426,29.052634716033936 18.673672676086426,29.052634716033936 18.673672676086426,28.526320934295654 18.673672676086426,28.000003337860107 18.673672676086426,27.473689556121826 18.673672676086426,26.947373867034912 18.673672676086426,26.421058177947998 18.673672676086426,26.421058177947998 18.673672676086426,26.421058177947998 18.14735698699951,26.421058177947998 17.621041297912598,26.421058177947998 17.094725608825684,26.421058177947998 17.094725608825684,26.947373867034912 16.56840991973877,26.947373867034912 16.042094230651855,26.947373867034912 16.042094230651855,26.947373867034912 15.515778541564941,26.947373867034912 15.515778541564941,26.421058177947998 15.515778541564941,25.894742488861084 15.515778541564941,25.36842679977417 15.515778541564941,24.842111110687256 15.515778541564941,24.315795421600342 14.989462852478027,24.315795421600342 14.989462852478027,23.789479732513428 14.989462852478027,23.263164043426514 14.989462852478027,23.263164043426514 14.463147163391113,23.263164043426514 14.463147163391113,22.7368483543396 14.463147163391113,22.210532665252686 14.463147163391113,21.68421506881714 14.463147163391113,21.157899379730225 14.463147163391113,20.63158369064331 14.463147163391113,20.105268001556396 14.463147163391113,20.105268001556396 14.463147163391113,19.578952312469482 14.989462852478027,19.578952312469482 15.515778541564941,19.578952312469482 16.042094230651855,19.578952312469482 16.042094230651855,19.578952312469482 16.56840991973877,19.578952312469482 17.094725608825684,19.578952312469482 17.621041297912598,19.578952312469482 18.14735698699951,19.578952312469482 18.673672676086426,19.578952312469482 19.19998836517334,19.578952312469482 19.19998836517334,19.05263662338257 19.19998836517334,18.526320934295654 19.19998836517334,18.00000524520874 18.673672676086426,17.473689556121826 18.673672676086426,16.947373867034912 18.673672676086426,16.421058177947998 18.673672676086426,15.894742488861084 18.673672676086426,15.36842679977417 18.673672676086426,15.36842679977417 18.673672676086426,14.842111110687256 18.673672676086426,14.315795421600342 18.673672676086426,13.789479732513428 18.673672676086426,13.263164043426514 18.14735698699951,12.7368483543396 18.14735698699951,11.684216976165771 18.14735698699951,11.157900333404541 18.14735698699951,10.631584644317627 18.14735698699951,10.105268955230713 18.14735698699951,9.578953266143799 18.14735698699951,9.052637577056885 18.14735698699951,9.052637577056885 18.14735698699951,8.52632188796997 18.14735698699951,8.000006198883057 18.673672676086426,7.473690509796143 19.19998836517334,7.473690509796143 19.19998836517334,7.473690509796143 19.726304054260254,7.473690509796143 19.726304054260254,6.9473748207092285 20.252619743347168,5.8947434425354 20.778935432434082,5.36842679977417 21.305251121520996,5.36842679977417 21.83156681060791,5.36842679977417 22.357882499694824,5.36842679977417 22.357882499694824,5.36842679977417 22.88419818878174,4.842111110687256 22.88419818878174,4.315795421600342 23.9368314743042,4.315795421600342 23.9368314743042,4.315795421600342 24.463147163391113,4.315795421600342 24.463147163391113,4.315795421600342 24.989462852478027,4.315795421600342 25.51577854156494,4.315795421600342 26.042092323303223,4.315795421600342 26.56840991973877,4.315795421600342 26.56840991973877,4.315795421600342 27.09472370147705,4.315795421600342 28.673672676086426,3.7894797325134277 29.199986457824707,3.7894797325134277 29.199986457824707,3.7894797325134277 29.726304054260254,3.7894797325134277 30.2526216506958,3.7894797325134277 30.778935432434082,3.7894797325134277 31.30525302886963,3.7894797325134277 31.30525302886963,4.315795421600342 31.83156681060791,4.315795421600342 31.83156681060791,4.315795421600342 31.83156681060791,4.842111110687256 31.83156681060791,5.36842679977417 31.83156681060791,5.8947434425354 31.83156681060791,6.4210591316223145 31.83156681060791,6.9473748207092285 31.83156681060791,6.9473748207092285 31.83156681060791,7.473690509796143 31.83156681060791,8.000006198883057 31.83156681060791,8.52632188796997 31.83156681060791,9.052637577056885 31.83156681060791,9.578953266143799 31.83156681060791,10.105268955230713 " style="color: rgb(0, 0, 0);" class=""/>
                                	</g>
                                </g>
                            </svg>
