<svg xmlns="http://www.w3.org/2000/svg" xmlns:se="http://svg-edit.googlecode.com" xmlns:xlink="http://www.w3.org/1999/xlink" xmlns:dc="http://purl.org/dc/elements/1.1/" xmlns:cc="http://creativecommons.org/ns#" xmlns:rdf="http://www.w3.org/1999/02/22-rdf-syntax-ns#" xmlns:inkscape="http://www.inkscape.org/namespaces/inkscape" width="50" height="40.36842346191406">
                                    <title>my vector image</title>
                                    <!-- Created with Vector Paint - http://www.vectorpaint.yaks.com/ https://chrome.google.com/webstore/detail/hnbpdiengicdefcjecjbnjnoifekhgdo -->
                                <g class="currentLayer">
                                	<title>Layer 1</title>
                                	<g class="" id="svg_2">
                                		<path fill="" fill-opacity="1" stroke="white" stroke-opacity="1" stroke-width="1" stroke-dasharray="none" stroke-linejoin="miter" stroke-linecap="butt" stroke-dashoffset="" fill-rule="nonzero" opacity="1" marker-start="" marker-mid="" marker-end="" d="M2.105263601710078,2.921046741781879 L2.6315793647661962,38.71051862959766 " id="svg_1" class=""/>
                                		<path fill="" fill-opacity="1" stroke="white" stroke-opacity="1" stroke-width="1" stroke-dasharray="none" stroke-linejoin="miter" stroke-linecap="butt" stroke-dashoffset="" fill-rule="nonzero" opacity="1" marker-start="" marker-mid="" marker-end="" d="M2.6315793647661962,38.71051862959766 L48.94736651370425,38.71051862959766 " id="svg_3" class=""/>
                                		<path fill="" fill-opacity="1" stroke="white" stroke-opacity="1" stroke-width="1" stroke-dasharray="none" stroke-linejoin="miter" stroke-linecap="butt" stroke-dashoffset="" fill-rule="nonzero" opacity="1" marker-start="" marker-mid="" marker-end="" d="M48.94736651370425,38.71051862959766 L47.3684192245359,3.447362504837997 " id="svg_5" class=""/>
                                		<path fill="" fill-opacity="1" stroke="white" stroke-opacity="1" stroke-width="1" stroke-dasharray="none" stroke-linejoin="miter" stroke-linecap="butt" stroke-dashoffset="" fill-rule="nonzero" opacity="1" marker-start="" marker-mid="" marker-end="" d="M47.3684192245359,3.447362504837997 L2.6315793647661962,3.447362504837997 " id="svg_7" class=""/>
                                	</g>
                                	<polyline fill="none" stroke="white" stroke-dashoffset="" fill-rule="nonzero" marker-start="" marker-mid="" marker-end="" id="svg_11" points="11.578946787234543,13.078949924320966 11.052631024178424,13.605265687377084 11.052631024178424,14.131581450433202 11.052631024178424,14.65789721348932 11.578946787234543,14.65789721348932 11.578946787234543,14.131581450433202 12.10526255029066,14.131581450433202 12.10526255029066,15.184212976545439 12.631578313346777,15.184212976545439 14.736841365571252,15.7105287396015 17.894735943907904,15.7105287396015 18.94736747002014,15.7105287396015 18.421051706964022,15.7105287396015 17.368420180851842,15.7105287396015 16.842104417795724,15.7105287396015 16.842104417795724,15.7105287396015 15.26315712862737,15.7105287396015 14.210525602515133,15.7105287396015 14.210525602515133,15.7105287396015 14.736841365571252,15.7105287396015 16.315788654739606,15.7105287396015 17.368420180851842,15.7105287396015 15.789472891683488,15.7105287396015 11.578946787234543,14.65789721348932 9.999999498066188,14.65789721348932 9.999999498066188,14.131581450433202 10.526315261122306,14.131581450433202 11.052631024178424,14.131581450433202 11.052631024178424,13.605265687377084 11.578946787234543,13.605265687377084 12.10526255029066,13.605265687377084 13.157894076402897,13.605265687377084 13.684209839459015,13.605265687377084 16.842104417795724,13.605265687377084 17.894735943907904,13.605265687377084 17.368420180851842,13.605265687377084 16.842104417795724,13.605265687377084 16.842104417795724,14.131581450433202 16.315788654739606,14.131581450433202 16.315788654739606,13.605265687377084 15.789472891683488,13.605265687377084 15.789472891683488,14.65789721348932 15.26315712862737,14.65789721348932 15.26315712862737,15.7105287396015 14.736841365571252,15.7105287396015 14.210525602515133,15.7105287396015 14.210525602515133,16.23684450265762 14.210525602515133,16.23684450265762 15.26315712862737,16.23684450265762 15.789472891683488,16.23684450265762 16.315788654739606,16.23684450265762 16.315788654739606,15.184212976545439 15.789472891683488,15.184212976545439 14.736841365571252,15.184212976545439 14.210525602515133,15.7105287396015 13.684209839459015,16.763160265713736 13.684209839459015,16.763160265713736 14.210525602515133,16.763160265713736 14.736841365571252,16.763160265713736 15.26315712862737,16.763160265713736 16.315788654739606,15.7105287396015 16.315788654739606,15.184212976545439 15.26315712862737,15.184212976545439 13.684209839459015,15.7105287396015 13.157894076402897,15.7105287396015 13.157894076402897,16.23684450265762 13.684209839459015,16.23684450265762 13.684209839459015,15.7105287396015 13.684209839459015,16.23684450265762 13.684209839459015,16.763160265713736 14.210525602515133,16.763160265713736 14.210525602515133,16.23684450265762 14.210525602515133,15.7105287396015 13.684209839459015,15.7105287396015 12.631578313346777,15.7105287396015 12.631578313346777,16.23684450265762 13.157894076402897,16.23684450265762 13.157894076402897,15.7105287396015 13.157894076402897,15.184212976545439 13.157894076402897,15.7105287396015 13.157894076402897,16.23684450265762 13.157894076402897,17.289476028769855 13.684209839459015,17.289476028769855 14.210525602515133,17.289476028769855 14.736841365571252,17.289476028769855 17.368420180851842,17.289476028769855 18.421051706964022,16.763160265713736 18.421051706964022,15.7105287396015 18.421051706964022,14.65789721348932 18.421051706964022,14.131581450433202 17.894735943907904,14.131581450433202 16.842104417795724,14.131581450433202 16.315788654739606,14.131581450433202 15.789472891683488,15.184212976545439 14.736841365571252,15.7105287396015 14.736841365571252,17.289476028769855 14.210525602515133,17.289476028769855 14.210525602515133,18.34210755488209 14.210525602515133,17.815791791825973 15.26315712862737,16.763160265713736 15.26315712862737,16.23684450265762 14.736841365571252,16.23684450265762 13.157894076402897,16.23684450265762 12.10526255029066,16.763160265713736 11.052631024178424,16.763160265713736 11.052631024178424,16.763160265713736 11.578946787234543,16.763160265713736 12.631578313346777,16.763160265713736 12.631578313346777,16.763160265713736 12.631578313346777,16.23684450265762 13.157894076402897,15.7105287396015 12.631578313346777,15.7105287396015 12.10526255029066,16.763160265713736 12.10526255029066,17.289476028769855 12.631578313346777,17.289476028769855 13.157894076402897,16.23684450265762 14.210525602515133,15.7105287396015 14.210525602515133,15.184212976545439 13.684209839459015,15.184212976545439 13.684209839459015,15.7105287396015 13.684209839459015,16.23684450265762 13.684209839459015,15.7105287396015 14.210525602515133,15.7105287396015 15.26315712862737,15.7105287396015 15.789472891683488,15.7105287396015 16.315788654739606,15.7105287396015 " style="color: rgb(0, 0, 0);"/>
                                	<polyline fill="none" stroke="white" stroke-dashoffset="" fill-rule="nonzero" marker-start="" marker-mid="" marker-end="" id="svg_4" points="17.368420180851842,22.552633659331036 16.842104417795724,22.552633659331036 16.315788654739606,22.552633659331036 15.789472891683488,22.552633659331036 14.736841365571252,22.552633659331036 14.210525602515133,22.552633659331036 13.684209839459015,22.552633659331036 13.157894076402897,22.552633659331036 12.631578313346777,22.552633659331036 12.10526255029066,22.552633659331036 12.10526255029066,22.552633659331036 11.578946787234543,22.552633659331036 11.052631024178424,22.552633659331036 10.526315261122306,22.552633659331036 10.526315261122306,23.078949422387154 10.526315261122306,23.605265185443276 10.526315261122306,24.131580948499334 10.526315261122306,24.657896711555452 10.526315261122306,25.184212474611567 10.526315261122306,25.71052823766769 10.526315261122306,26.236844000723806 10.526315261122306,26.763159763779925 10.526315261122306,27.289475526836043 10.526315261122306,27.81579128989216 10.526315261122306,27.81579128989216 10.526315261122306,28.34210705294828 10.526315261122306,29.394738579060515 10.526315261122306,29.394738579060515 10.526315261122306,29.921054342116634 10.526315261122306,30.44737010517275 10.526315261122306,30.97368586822887 10.526315261122306,31.500001631284988 10.526315261122306,32.02631739434105 10.526315261122306,32.55263315739717 10.526315261122306,33.078948920453286 10.526315261122306,33.605264683509404 10.526315261122306,33.605264683509404 12.10526255029066,33.605264683509404 13.157894076402897,33.605264683509404 13.684209839459015,33.605264683509404 14.736841365571252,33.605264683509404 15.26315712862737,33.605264683509404 15.789472891683488,33.605264683509404 16.315788654739606,33.605264683509404 16.842104417795724,33.605264683509404 17.368420180851842,33.605264683509404 17.368420180851842,33.605264683509404 17.368420180851842,33.078948920453286 17.368420180851842,32.55263315739717 17.368420180851842,32.02631739434105 17.368420180851842,31.500001631284988 17.368420180851842,30.97368586822887 17.368420180851842,30.44737010517275 17.368420180851842,29.921054342116634 17.368420180851842,29.394738579060515 17.368420180851842,28.868422816004397 17.368420180851842,28.34210705294828 17.368420180851842,27.81579128989216 17.368420180851842,27.289475526836043 17.368420180851842,26.763159763779925 17.368420180851842,26.236844000723806 17.368420180851842,25.71052823766769 17.368420180851842,25.184212474611567 17.368420180851842,24.657896711555452 17.368420180851842,24.131580948499334 17.368420180851842,23.605265185443276 " style="color: rgb(0, 0, 0);"/>
                                	<polyline fill="none" stroke="white" stroke-dashoffset="" fill-rule="nonzero" marker-start="" marker-mid="" marker-end="" id="svg_6" points="27.894735441974092,14.131581450433202 27.894735441974092,14.65789721348932 27.894735441974092,15.184212976545439 27.894735441974092,15.7105287396015 27.368419678917974,16.763160265713736 27.368419678917974,16.763160265713736 27.368419678917974,17.815791791825973 27.368419678917974,18.34210755488209 27.368419678917974,18.86842331793821 27.368419678917974,19.394739080994327 27.368419678917974,19.921054844050445 27.368419678917974,21.5000021332188 27.368419678917974,23.078949422387154 27.368419678917974,24.131580948499334 27.368419678917974,24.131580948499334 27.368419678917974,25.184212474611567 27.368419678917974,25.71052823766769 27.368419678917974,26.236844000723806 27.368419678917974,26.763159763779925 27.368419678917974,27.289475526836043 27.368419678917974,27.81579128989216 27.368419678917974,27.81579128989216 27.368419678917974,28.34210705294828 27.368419678917974,28.868422816004397 27.368419678917974,29.394738579060515 27.368419678917974,29.921054342116634 27.368419678917974,30.44737010517275 27.368419678917974,30.97368586822887 27.368419678917974,31.500001631284988 26.842103915861856,31.500001631284988 26.842103915861856,32.02631739434105 26.842103915861856,32.55263315739717 27.368419678917974,32.55263315739717 28.947366968086328,32.55263315739717 29.999998494198564,32.55263315739717 30.526314257254683,32.55263315739717 31.0526300203108,32.55263315739717 31.57894578336692,32.55263315739717 32.10526154642304,32.55263315739717 32.631577309479155,32.55263315739717 33.68420883559139,32.55263315739717 33.68420883559139,32.55263315739717 33.68420883559139,32.02631739434105 33.68420883559139,31.500001631284988 33.68420883559139,30.97368586822887 33.68420883559139,30.44737010517275 33.68420883559139,29.921054342116634 33.68420883559139,29.394738579060515 33.68420883559139,28.868422816004397 33.68420883559139,28.34210705294828 33.68420883559139,27.81579128989216 33.68420883559139,27.289475526836043 33.68420883559139,26.763159763779925 33.68420883559139,26.236844000723806 33.68420883559139,25.71052823766769 33.68420883559139,25.184212474611567 34.21052459864751,25.184212474611567 34.21052459864751,24.657896711555452 34.21052459864751,24.131580948499334 34.21052459864751,23.605265185443276 34.73684036170357,23.605265185443276 34.73684036170357,23.078949422387154 35.26315612475969,23.078949422387154 35.78947188781581,23.078949422387154 36.315787650871926,23.078949422387154 36.842103413928044,23.078949422387154 37.36841917698416,23.078949422387154 37.89473494004028,23.078949422387154 38.4210507030964,23.078949422387154 38.947366466152516,23.078949422387154 38.947366466152516,24.131580948499334 38.947366466152516,24.657896711555452 38.947366466152516,25.184212474611567 38.947366466152516,25.71052823766769 38.947366466152516,26.236844000723806 38.947366466152516,26.763159763779925 39.473682229208634,27.289475526836043 39.473682229208634,27.81579128989216 39.473682229208634,28.34210705294828 39.473682229208634,28.868422816004397 39.473682229208634,29.394738579060515 39.473682229208634,29.921054342116634 39.473682229208634,30.44737010517275 39.473682229208634,30.44737010517275 39.473682229208634,30.97368586822887 39.473682229208634,31.500001631284988 39.99999799226475,31.500001631284988 41.57894528143311,31.500001631284988 42.105261044489225,31.500001631284988 42.63157680754529,31.500001631284988 43.157892570601405,31.500001631284988 43.68420833365752,31.500001631284988 44.21052409671365,31.500001631284988 44.73683985976976,31.500001631284988 44.73683985976976,30.97368586822887 44.73683985976976,30.44737010517275 44.73683985976976,29.921054342116634 44.73683985976976,28.868422816004397 44.73683985976976,28.34210705294828 44.73683985976976,27.81579128989216 44.73683985976976,27.289475526836043 44.73683985976976,26.763159763779925 44.73683985976976,26.236844000723806 44.73683985976976,25.71052823766769 44.73683985976976,25.184212474611567 44.73683985976976,24.657896711555452 44.73683985976976,24.657896711555452 44.73683985976976,24.131580948499334 44.73683985976976,23.605265185443276 44.73683985976976,23.078949422387154 44.73683985976976,22.552633659331036 44.73683985976976,22.026317896274918 44.73683985976976,21.5000021332188 44.73683985976976,20.97368637016268 44.73683985976976,20.447370607106564 44.73683985976976,19.921054844050445 44.21052409671365,19.921054844050445 44.21052409671365,18.86842331793821 43.68420833365752,18.86842331793821 43.68420833365752,18.34210755488209 43.157892570601405,18.34210755488209 43.157892570601405,17.815791791825973 43.157892570601405,17.289476028769855 42.63157680754529,17.289476028769855 42.63157680754529,16.763160265713736 42.63157680754529,16.23684450265762 42.105261044489225,16.23684450265762 42.105261044489225,15.7105287396015 41.57894528143311,15.7105287396015 41.05262951837699,15.184212976545439 40.52631375532087,15.184212976545439 39.99999799226475,15.184212976545439 39.473682229208634,15.184212976545439 38.947366466152516,14.65789721348932 37.89473494004028,14.65789721348932 37.89473494004028,14.65789721348932 37.36841917698416,14.65789721348932 36.842103413928044,14.65789721348932 36.315787650871926,14.131581450433202 35.78947188781581,14.131581450433202 35.26315612475969,14.131581450433202 34.21052459864751,14.131581450433202 33.68420883559139,14.131581450433202 33.15789307253527,14.131581450433202 32.631577309479155,14.131581450433202 32.631577309479155,14.65789721348932 32.10526154642304,14.65789721348932 32.10526154642304,15.184212976545439 32.10526154642304,15.7105287396015 32.10526154642304,16.23684450265762 31.57894578336692,16.23684450265762 31.57894578336692,16.763160265713736 31.57894578336692,17.289476028769855 31.57894578336692,17.815791791825973 31.57894578336692,18.34210755488209 31.57894578336692,18.34210755488209 31.57894578336692,18.86842331793821 31.57894578336692,19.394739080994327 31.0526300203108,19.394739080994327 31.0526300203108,18.86842331793821 31.0526300203108,18.34210755488209 31.0526300203108,17.815791791825973 31.0526300203108,17.289476028769855 31.0526300203108,16.763160265713736 31.0526300203108,16.23684450265762 31.0526300203108,15.7105287396015 31.0526300203108,15.184212976545439 31.0526300203108,14.65789721348932 31.0526300203108,14.131581450433202 31.0526300203108,13.605265687377084 31.0526300203108,13.078949924320966 31.0526300203108,12.552634161264848 30.526314257254683,12.552634161264848 29.473682731142446,12.552634161264848 28.947366968086328,12.552634161264848 28.42105120503021,12.552634161264848 27.894735441974092,12.552634161264848 27.894735441974092,12.552634161264848 27.894735441974092,13.078949924320966 27.894735441974092,13.605265687377084 27.894735441974092,14.65789721348932 27.894735441974092,14.65789721348932 27.894735441974092,15.7105287396015 27.894735441974092,16.23684450265762 27.894735441974092,16.763160265713736 27.894735441974092,16.763160265713736 " style="color: rgb(0, 0, 0);"/>
                                </g>
                            </svg>
